<svg width="190" height="42" viewBox="0 0 190 42" fill="none" xmlns="http://www.w3.org/2000/svg">
<rect width="190" height="42" rx="3" fill="#BBEDE9"/>
<path d="M46.8484 13.8888H51.3664C52.6024 13.8888 53.5264 14.1468 54.1384 14.6628C54.7624 15.1668 55.0744 15.9648 55.0744 17.0568C55.0744 17.8368 54.9364 18.4488 54.6604 18.8928C54.3964 19.3248 54.0004 19.6668 53.4724 19.9188C54.7924 20.3748 55.4524 21.3528 55.4524 22.8528C55.4524 24.1008 55.1224 24.9948 54.4624 25.5348C53.8024 26.0748 52.8484 26.3448 51.6004 26.3448H46.8484V13.8888ZM51.4564 20.6208H48.2344V25.1208H51.5464C52.3624 25.1208 52.9804 24.9528 53.4004 24.6168C53.8324 24.2688 54.0484 23.6628 54.0484 22.7988C54.0484 22.3428 53.9584 21.9588 53.7784 21.6468C53.6104 21.3348 53.3824 21.1128 53.0944 20.9808C52.5664 20.7408 52.0204 20.6208 51.4564 20.6208ZM51.3124 15.1128H48.2344V19.4148H51.4384C52.2064 19.4148 52.7644 19.2348 53.1124 18.8748C53.4724 18.5028 53.6524 17.9508 53.6524 17.2188C53.6524 16.4748 53.4604 15.9408 53.0764 15.6168C52.7044 15.2808 52.1164 15.1128 51.3124 15.1128ZM63.3222 17.3448H64.6722V26.3448H63.3222V25.7148C62.4222 26.2548 61.5342 26.5248 60.6582 26.5248C59.4342 26.5248 58.6182 26.2068 58.2102 25.5708C57.8142 24.9348 57.6162 23.7588 57.6162 22.0428V17.3448H58.9662V22.0248C58.9662 23.3328 59.0802 24.2088 59.3082 24.6528C59.5362 25.0968 60.0522 25.3188 60.8562 25.3188C61.2522 25.3188 61.6542 25.2648 62.0622 25.1568C62.4702 25.0368 62.7822 24.9228 62.9982 24.8148L63.3222 24.6528V17.3448ZM73.6227 20.0628V24.6708C73.6587 25.1148 74.0067 25.3788 74.6667 25.4628L74.6127 26.5248C73.6647 26.5248 72.9507 26.2848 72.4707 25.8048C71.3907 26.2848 70.3107 26.5248 69.2307 26.5248C68.4027 26.5248 67.7727 26.2908 67.3407 25.8228C66.9087 25.3548 66.6927 24.6828 66.6927 23.8068C66.6927 22.9308 66.9147 22.2888 67.3587 21.8808C67.8027 21.4608 68.4987 21.2028 69.4467 21.1068L72.2727 20.8368V20.0628C72.2727 19.4508 72.1407 19.0128 71.8767 18.7488C71.6127 18.4848 71.2527 18.3528 70.7967 18.3528C69.8367 18.3528 68.8407 18.4128 67.8087 18.5328L67.2507 18.5868L67.1967 17.5608C68.5167 17.2968 69.6867 17.1648 70.7067 17.1648C71.7267 17.1648 72.4647 17.3988 72.9207 17.8668C73.3887 18.3348 73.6227 19.0668 73.6227 20.0628ZM68.0787 23.7348C68.0787 24.8388 68.5347 25.3908 69.4467 25.3908C70.2627 25.3908 71.0667 25.2528 71.8587 24.9768L72.2727 24.8328V21.8628L69.6087 22.1148C69.0687 22.1628 68.6787 22.3188 68.4387 22.5828C68.1987 22.8468 68.0787 23.2308 68.0787 23.7348ZM80.9482 18.5148H78.0862V22.8168C78.0862 23.8488 78.1582 24.5268 78.3022 24.8508C78.4582 25.1748 78.8182 25.3368 79.3822 25.3368L80.9842 25.2288L81.0742 26.3448C80.2702 26.4768 79.6582 26.5428 79.2382 26.5428C78.3022 26.5428 77.6542 26.3148 77.2942 25.8588C76.9342 25.4028 76.7542 24.5328 76.7542 23.2488V18.5148H75.4762V17.3448H76.7542V14.5908H78.0862V17.3448H80.9482V18.5148ZM91.3399 22.1508H88.1719V26.3448H86.7859V13.8888H91.3399C92.6959 13.8888 93.6979 14.2188 94.3459 14.8788C94.9939 15.5388 95.3179 16.5468 95.3179 17.9028C95.3179 20.7348 93.9919 22.1508 91.3399 22.1508ZM88.1719 20.9268H91.3219C93.0379 20.9268 93.8959 19.9188 93.8959 17.9028C93.8959 16.9428 93.6919 16.2408 93.2839 15.7968C92.8759 15.3408 92.2219 15.1128 91.3219 15.1128H88.1719V20.9268ZM103.271 25.2288L103.793 25.1748L103.829 26.2368C102.461 26.4288 101.291 26.5248 100.319 26.5248C99.0235 26.5248 98.1055 26.1528 97.5655 25.4088C97.0255 24.6528 96.7555 23.4828 96.7555 21.8988C96.7555 18.7428 98.0095 17.1648 100.517 17.1648C101.729 17.1648 102.635 17.5068 103.235 18.1908C103.835 18.8628 104.135 19.9248 104.135 21.3768L104.063 22.4028H98.1235C98.1235 23.3988 98.3035 24.1368 98.6635 24.6168C99.0235 25.0968 99.6475 25.3368 100.535 25.3368C101.435 25.3368 102.347 25.3008 103.271 25.2288ZM102.785 21.3228C102.785 20.2188 102.605 19.4388 102.245 18.9828C101.897 18.5268 101.321 18.2988 100.517 18.2988C99.7255 18.2988 99.1255 18.5388 98.7175 19.0188C98.3215 19.4988 98.1175 20.2668 98.1055 21.3228H102.785ZM109.065 18.3708C107.757 18.3708 107.103 18.8268 107.103 19.7388C107.103 20.1588 107.253 20.4588 107.553 20.6388C107.853 20.8068 108.537 20.9868 109.605 21.1788C110.673 21.3588 111.429 21.6168 111.873 21.9528C112.317 22.2888 112.539 22.9188 112.539 23.8428C112.539 24.7668 112.239 25.4448 111.639 25.8768C111.051 26.3088 110.187 26.5248 109.047 26.5248C108.303 26.5248 107.427 26.4408 106.419 26.2728L105.879 26.1828L105.951 25.0128C107.319 25.2168 108.351 25.3188 109.047 25.3188C109.743 25.3188 110.271 25.2108 110.631 24.9948C111.003 24.7668 111.189 24.3948 111.189 23.8788C111.189 23.3508 111.033 22.9968 110.721 22.8168C110.409 22.6248 109.725 22.4448 108.669 22.2768C107.613 22.1088 106.863 21.8628 106.419 21.5388C105.975 21.2148 105.753 20.6148 105.753 19.7388C105.753 18.8628 106.059 18.2148 106.671 17.7948C107.295 17.3748 108.069 17.1648 108.993 17.1648C109.725 17.1648 110.643 17.2488 111.747 17.4168L112.251 17.5068L112.215 18.6588C110.883 18.4668 109.833 18.3708 109.065 18.3708ZM120.961 20.0628V24.6708C120.997 25.1148 121.345 25.3788 122.005 25.4628L121.951 26.5248C121.003 26.5248 120.289 26.2848 119.809 25.8048C118.729 26.2848 117.649 26.5248 116.569 26.5248C115.741 26.5248 115.111 26.2908 114.679 25.8228C114.247 25.3548 114.031 24.6828 114.031 23.8068C114.031 22.9308 114.253 22.2888 114.697 21.8808C115.141 21.4608 115.837 21.2028 116.785 21.1068L119.611 20.8368V20.0628C119.611 19.4508 119.479 19.0128 119.215 18.7488C118.951 18.4848 118.591 18.3528 118.135 18.3528C117.175 18.3528 116.179 18.4128 115.147 18.5328L114.589 18.5868L114.535 17.5608C115.855 17.2968 117.025 17.1648 118.045 17.1648C119.065 17.1648 119.803 17.3988 120.259 17.8668C120.727 18.3348 120.961 19.0668 120.961 20.0628ZM115.417 23.7348C115.417 24.8388 115.873 25.3908 116.785 25.3908C117.601 25.3908 118.405 25.2528 119.197 24.9768L119.611 24.8328V21.8628L116.947 22.1148C116.407 22.1628 116.017 22.3188 115.777 22.5828C115.537 22.8468 115.417 23.2308 115.417 23.7348ZM124.974 26.3448H123.624V17.3448H124.956V17.9748C125.928 17.4348 126.858 17.1648 127.746 17.1648C128.946 17.1648 129.75 17.4888 130.158 18.1368C130.578 18.7848 130.788 19.9368 130.788 21.5928V26.3448H129.456V21.6288C129.456 20.3808 129.33 19.5288 129.078 19.0728C128.838 18.6048 128.316 18.3708 127.512 18.3708C127.128 18.3708 126.72 18.4308 126.288 18.5508C125.868 18.6588 125.544 18.7668 125.316 18.8748L124.974 19.0368V26.3448ZM139.646 20.0628V24.6708C139.682 25.1148 140.03 25.3788 140.69 25.4628L140.636 26.5248C139.688 26.5248 138.974 26.2848 138.494 25.8048C137.414 26.2848 136.334 26.5248 135.254 26.5248C134.426 26.5248 133.796 26.2908 133.364 25.8228C132.932 25.3548 132.716 24.6828 132.716 23.8068C132.716 22.9308 132.938 22.2888 133.382 21.8808C133.826 21.4608 134.522 21.2028 135.47 21.1068L138.296 20.8368V20.0628C138.296 19.4508 138.164 19.0128 137.9 18.7488C137.636 18.4848 137.276 18.3528 136.82 18.3528C135.86 18.3528 134.864 18.4128 133.832 18.5328L133.274 18.5868L133.22 17.5608C134.54 17.2968 135.71 17.1648 136.73 17.1648C137.75 17.1648 138.488 17.3988 138.944 17.8668C139.412 18.3348 139.646 19.0668 139.646 20.0628ZM134.102 23.7348C134.102 24.8388 134.558 25.3908 135.47 25.3908C136.286 25.3908 137.09 25.2528 137.882 24.9768L138.296 24.8328V21.8628L135.632 22.1148C135.092 22.1628 134.702 22.3188 134.462 22.5828C134.222 22.8468 134.102 23.2308 134.102 23.7348ZM143.66 26.3448H142.31V17.3448H143.642V17.9748C144.614 17.4348 145.544 17.1648 146.432 17.1648C147.632 17.1648 148.436 17.4888 148.844 18.1368C149.264 18.7848 149.474 19.9368 149.474 21.5928V26.3448H148.142V21.6288C148.142 20.3808 148.016 19.5288 147.764 19.0728C147.524 18.6048 147.002 18.3708 146.198 18.3708C145.814 18.3708 145.406 18.4308 144.974 18.5508C144.554 18.6588 144.23 18.7668 144.002 18.8748L143.66 19.0368V26.3448Z" fill="black"/>
</svg>
