<svg width="82" height="23" viewBox="0 0 82 23" fill="none" xmlns="http://www.w3.org/2000/svg">
<path d="M16.9219 16.5664C16.9219 16.8945 16.3594 17.0586 15.2344 17.0586H14.6719L14.0977 17.0469C13.0508 17.0469 12.3281 17.0078 11.9297 16.9297C11.5312 16.8516 11.332 16.6836 11.332 16.4258C11.332 16.3555 11.4609 16.168 11.7188 15.8633C11.9844 15.5586 12.1836 15.1523 12.3164 14.6445C12.4492 14.1367 12.5156 13.2422 12.5156 11.9609C12.5156 10.6797 12.375 9.91406 12.0938 9.66406C11.8203 9.40625 10.707 9.27734 8.75391 9.27734C6.80859 9.27734 5.67578 9.42969 5.35547 9.73438C5.14453 9.92969 5.03906 10.707 5.03906 12.0664C5.03906 13.4258 5.08594 14.3164 5.17969 14.7383C5.28125 15.1602 5.41406 15.4883 5.57812 15.7227L5.8125 15.9922C6.05469 16.2656 6.17578 16.4258 6.17578 16.4727C6.17578 16.7539 5.92969 16.9219 5.4375 16.9766C5.21875 17 4.33984 17.0117 2.80078 17.0117C1.26953 17.0117 0.503906 16.8359 0.503906 16.4844C0.503906 16.2969 0.804688 16.0039 1.40625 15.6055C1.80469 15.3398 2.04297 14.9844 2.12109 14.5391C2.19922 14.0859 2.23828 12.2031 2.23828 8.89062C2.23828 5.57812 2.17969 3.66016 2.0625 3.13672C1.94531 2.61328 1.65234 2.21875 1.18359 1.95312C0.722656 1.67969 0.492188 1.42969 0.492188 1.20312C0.492188 0.898438 1.46875 0.746094 3.42188 0.746094H4.55859C5.65234 0.746094 6.19922 0.929688 6.19922 1.29688C6.19922 1.32813 6.06641 1.51172 5.80078 1.84766C5.53516 2.17578 5.34766 2.58203 5.23828 3.06641C5.13672 3.54297 5.08594 4.32812 5.08594 5.42188C5.08594 6.51562 5.21484 7.18359 5.47266 7.42578C5.73047 7.66797 6.82422 7.78906 8.75391 7.78906C10.6914 7.78906 11.7969 7.65625 12.0703 7.39062C12.2656 7.20312 12.3633 6.51172 12.3633 5.31641C12.3633 4.11328 12.3203 3.34766 12.2344 3.01953C12.1562 2.69141 12.0312 2.41406 11.8594 2.1875L11.6133 1.91797C11.3711 1.66016 11.25 1.48828 11.25 1.40234C11.25 1.10547 11.4648 0.929688 11.8945 0.875C12.3242 0.820312 13.2812 0.792969 14.7656 0.792969C16.25 0.792969 16.9922 0.953125 16.9922 1.27344C16.9922 1.51563 16.8516 1.73437 16.5703 1.92969C15.9375 2.35938 15.5938 2.63672 15.5391 2.76172C15.4062 3.06641 15.3398 4.54297 15.3398 7.19141L15.2578 12.9805C15.2578 14.0664 15.3164 14.7656 15.4336 15.0781C15.5508 15.3906 15.7461 15.6289 16.0195 15.793C16.6211 16.1602 16.9219 16.418 16.9219 16.5664ZM23.4492 1.95312C23.4492 2.29687 23.3008 2.61719 23.0039 2.91406C22.7148 3.20312 22.4258 3.34766 22.1367 3.34766C22.0742 3.36328 22.0234 3.37109 21.9844 3.37109L21.7266 3.39453C21.3359 3.39453 20.9844 3.26562 20.6719 3.00781C20.3672 2.75 20.2148 2.41797 20.2148 2.01172V1.80078C20.2148 1.39453 20.375 1.05469 20.6953 0.78125C21.0234 0.5 21.3984 0.359375 21.8203 0.359375H21.8789L22.2773 0.40625C22.5195 0.40625 22.7695 0.539062 23.0273 0.804688C23.293 1.0625 23.4258 1.32422 23.4258 1.58984L23.4492 1.69531V1.95312ZM19.7227 7.17969C19.3164 6.98438 19.1133 6.80078 19.1133 6.62891C19.1133 6.45703 19.1953 6.32031 19.3594 6.21875C19.9297 5.875 20.832 5.70312 22.0664 5.70312H22.4062C22.8281 5.70312 23.0664 5.89844 23.1211 6.28906C23.1523 6.5 23.168 7.92188 23.168 10.5547C23.168 13.1797 23.2227 14.6875 23.332 15.0781C23.4414 15.4609 23.7031 15.7578 24.1172 15.9688C24.5312 16.1719 24.7383 16.3789 24.7383 16.5898C24.7383 16.8867 23.7695 17.0352 21.832 17.0352L21.4805 17.0469H20.0508C19.4805 17.0469 19.1953 16.9062 19.1953 16.625C19.1953 16.3906 19.3672 16.1641 19.7109 15.9453C20.0625 15.7266 20.3047 15.4844 20.4375 15.2188C20.5859 14.9297 20.6602 14.2539 20.6602 13.1914L20.6719 12.8164V12.4531L20.6836 11.9023V11.5391L20.6953 11.1758C20.6953 9.32422 20.6328 8.24609 20.5078 7.94141C20.3906 7.62891 20.1289 7.375 19.7227 7.17969ZM34.2773 11.7383C34.8945 12.3242 35.2031 13.0664 35.2031 13.9648C35.2031 14.8555 34.8359 15.6211 34.1016 16.2617C33.3672 16.8945 32.3516 17.2109 31.0547 17.2109H30.7383C29.2617 17.2109 28.1367 17.0273 27.3633 16.6602C26.9336 16.457 26.7188 16.0039 26.7188 15.3008V15.0078C26.7188 14.1094 26.8867 13.6602 27.2227 13.6602C27.5039 13.6602 27.8359 13.9258 28.2188 14.457C28.6016 14.9805 28.9219 15.332 29.1797 15.5117C29.6797 15.8555 30.2656 16.0273 30.9375 16.0273C31.6172 16.0273 32.1172 15.8867 32.4375 15.6055C32.7578 15.3164 32.918 14.9375 32.918 14.4688C32.918 14 32.6445 13.5664 32.0977 13.168C31.8086 12.957 31.1328 12.625 30.0703 12.1719C29.0156 11.7188 28.2266 11.2461 27.7031 10.7539C27.1797 10.2539 26.918 9.55078 26.918 8.64453C26.918 7.73828 27.2969 7.00391 28.0547 6.44141C28.8125 5.87109 29.7461 5.58594 30.8555 5.58594H31.1719C32.625 5.58594 33.6445 5.75781 34.2305 6.10156C34.5352 6.28125 34.6875 6.78125 34.6875 7.60156C34.6875 8.42188 34.4922 8.83203 34.1016 8.83203C33.8828 8.83203 33.582 8.58984 33.1992 8.10547C32.8242 7.61328 32.4805 7.26562 32.168 7.0625C31.8555 6.85156 31.4219 6.74609 30.8672 6.74609C30.3203 6.74609 29.8867 6.87109 29.5664 7.12109C29.2461 7.37109 29.0859 7.73438 29.0859 8.21094C29.0859 8.67969 29.3789 9.10156 29.9648 9.47656C30.1133 9.57812 30.7617 9.87891 31.9102 10.3789C33.0586 10.8789 33.8477 11.332 34.2773 11.7383ZM42.2344 15.4531L44.0156 15.1836C44.2188 15.1836 44.3203 15.3438 44.3203 15.6641C44.3203 15.9766 44.0195 16.3008 43.418 16.6367C42.8164 16.9727 42.1836 17.1406 41.5195 17.1406H41.2852C40.7617 17.1406 40.2891 17.0039 39.8672 16.7305C39.4453 16.457 39.1367 16.1211 38.9414 15.7227C38.6055 15.0273 38.4375 13.7109 38.4375 11.7734C38.4375 9.82812 38.3672 8.61328 38.2266 8.12891C38.0938 7.64453 37.918 7.3125 37.6992 7.13281C37.293 6.80469 37.0898 6.625 37.0898 6.59375C37.0898 6.39062 37.1953 6.21875 37.4062 6.07812C37.9453 5.71875 38.2383 5.51562 38.2852 5.46875C38.3398 5.41406 38.6406 4.77344 39.1875 3.54688C39.4609 2.9375 39.7695 2.63281 40.1133 2.63281C40.4648 2.63281 40.6992 2.75781 40.8164 3.00781C40.8477 3.07031 40.9141 3.41016 41.0156 4.02734C41.125 4.64453 41.2773 5.04297 41.4727 5.22266C41.668 5.39453 42.1016 5.5625 42.7734 5.72656C43.4453 5.88281 43.7812 6.10938 43.7812 6.40625C43.7812 6.70312 43.4102 6.92578 42.668 7.07422C41.9258 7.22266 41.4766 7.41406 41.3203 7.64844C41.0469 8.04688 40.9102 9.17188 40.9102 11.0234C40.9102 12.875 40.9961 14.043 41.168 14.5273C41.3867 15.1445 41.7422 15.4531 42.2344 15.4531ZM48.5508 10.9648V11.3984C48.5508 12.7266 48.8086 13.8281 49.3242 14.7031C49.5664 15.1172 49.875 15.4453 50.25 15.6875C50.625 15.9297 51.0039 16.0508 51.3867 16.0508H51.6211C52.332 16.0508 52.9453 15.707 53.4609 15.0195C53.9844 14.3242 54.2461 13.3398 54.2461 12.0664V11.2344C54.2461 9.97656 53.9844 8.91016 53.4609 8.03516C52.9453 7.15234 52.2891 6.71094 51.4922 6.71094H51.1289C50.4102 6.71094 49.8008 7.09766 49.3008 7.87109C48.8008 8.64453 48.5508 9.67578 48.5508 10.9648ZM57.0703 11.0117V11.5977C57.0703 12.2148 56.9453 12.8906 56.6953 13.625C56.1719 15.1562 55.1289 16.2266 53.5664 16.8359C52.8867 17.1016 52.2305 17.2344 51.5977 17.2344H51.2109C49.7188 17.2344 48.4727 16.7344 47.4727 15.7344C47.0195 15.2812 46.6523 14.6836 46.3711 13.9414C46.0898 13.1992 45.9492 12.4102 45.9492 11.5742V11.375C45.9492 10.6172 46.082 9.85156 46.3477 9.07812C46.8633 7.57031 47.875 6.52344 49.3828 5.9375C50.0625 5.67188 50.7148 5.53906 51.3398 5.53906H51.9258C52.6211 5.53906 53.3047 5.69531 53.9766 6.00781C55.25 6.60156 56.1367 7.54688 56.6367 8.84375C56.9258 9.60938 57.0703 10.332 57.0703 11.0117ZM65.0156 16.543C65.0156 16.8477 64.3086 17 62.8945 17H61.6523L61.1602 16.9766L60.4219 16.9648C59.5938 16.9648 59.1797 16.8164 59.1797 16.5195C59.1797 16.3086 59.3633 16.0859 59.7305 15.8516C60.1055 15.6094 60.3555 15.3008 60.4805 14.9258C60.6133 14.543 60.6797 13.4219 60.6797 11.5625C60.6797 9.70312 60.6172 8.57422 60.4922 8.17578C60.375 7.77734 60.1875 7.49219 59.9297 7.32031C59.4688 7.01562 59.2383 6.79297 59.2383 6.65234C59.2383 6.51172 59.3203 6.38672 59.4844 6.27734C59.9688 5.94922 60.7891 5.78516 61.9453 5.78516H62.168C62.6133 5.78516 62.9297 6.01172 63.1172 6.46484C63.3047 6.91016 63.457 7.13281 63.5742 7.13281C63.6914 7.13281 63.8906 7.02344 64.1719 6.80469C64.4609 6.58594 64.8047 6.36719 65.2031 6.14844C65.6094 5.92969 66.0586 5.82031 66.5508 5.82031C67.043 5.82031 67.418 5.94922 67.6758 6.20703C67.9414 6.45703 68.0742 6.78125 68.0742 7.17969C68.0664 7.58594 67.9609 7.89062 67.7578 8.09375C67.5547 8.29688 67.3359 8.39844 67.1016 8.39844C66.8672 8.39844 66.5586 8.30469 66.1758 8.11719C65.793 7.92188 65.4727 7.82422 65.2148 7.82422C64.957 7.82422 64.6758 7.93359 64.3711 8.15234C64.0664 8.36328 63.8047 8.74609 63.5859 9.30078C63.375 9.84766 63.2695 10.7891 63.2695 12.125C63.2695 13.4531 63.3633 14.3125 63.5508 14.7031C63.7383 15.0859 64.0273 15.4375 64.418 15.7578C64.8164 16.0781 65.0156 16.3398 65.0156 16.543ZM73.3945 7.29688C73.3945 8.13281 74.043 10.1172 75.3398 13.25C75.5195 13.6875 75.6641 13.9062 75.7734 13.9062C75.8828 13.9062 76.0859 13.5898 76.3828 12.957C77.4609 10.6758 78 8.95312 78 7.78906C78 7.45312 77.9453 7.17969 77.8359 6.96875L77.707 6.75781C77.5195 6.50781 77.4258 6.33203 77.4258 6.23047C77.4258 5.92578 77.9219 5.77344 78.9141 5.77344H79.6641C80.6094 5.77344 81.082 5.95312 81.082 6.3125C81.082 6.51562 80.8867 6.82812 80.4961 7.25C80.1133 7.66406 79.8359 8.06641 79.6641 8.45703C79.4922 8.84766 78.8633 10.4805 77.7773 13.3555C76.6992 16.2227 75.8633 18.1797 75.2695 19.2266C74.6758 20.2812 74.1211 21.0391 73.6055 21.5C73.0977 21.9609 72.5742 22.1914 72.0352 22.1914H71.7305C71.3242 22.1914 70.9766 22.0742 70.6875 21.8398C70.4062 21.6133 70.2656 21.375 70.2656 21.125C70.2656 20.8828 70.3633 20.6836 70.5586 20.5273C70.7617 20.3789 71.0273 20.3047 71.3555 20.3047L71.625 20.3281C71.7422 20.3359 71.9219 20.3398 72.1641 20.3398C72.7109 20.3398 73.2148 19.9883 73.6758 19.2852C74.1367 18.582 74.3672 17.8711 74.3672 17.1523C74.3672 16.4336 73.2539 13.7188 71.0273 9.00781C70.8242 8.57812 70.5234 8.13281 70.125 7.67188C69.7344 7.21094 69.5391 6.89062 69.5391 6.71094C69.5391 6.41406 69.7461 6.20703 70.1602 6.08984C70.5742 5.96484 71.2383 5.90234 72.1523 5.90234C73.0742 5.90234 73.5352 6.10156 73.5352 6.5C73.4414 6.90625 73.3945 7.17188 73.3945 7.29688Z" fill="black"/>
</svg>
