<svg width="64" height="19" viewBox="0 0 64 19" fill="none" xmlns="http://www.w3.org/2000/svg">
<path d="M3.14062 9.32812V9.96094C3.14062 12 3.58984 13.7031 4.48828 15.0703C4.89453 15.6875 5.39844 16.1758 6 16.5352C6.60938 16.8945 7.23438 17.0742 7.875 17.0742H8.0625C9.45312 17.0742 10.5664 16.4258 11.4023 15.1289C11.7305 14.6289 12.0117 13.9609 12.2461 13.125C12.4805 12.2891 12.5977 11.3984 12.5977 10.4531V9.80859C12.5977 8.76953 12.4648 7.78906 12.1992 6.86719C10.8711 4.60156 9.40625 3.21484 7.80469 2.70703C7.22656 2.71484 6.64844 2.85156 6.07031 3.11719C4.86719 3.67969 4.02344 4.8125 3.53906 6.51562C3.27344 7.46094 3.14062 8.39844 3.14062 9.32812ZM15.8086 9.44531V9.99609C15.8086 11.0586 15.6211 12.1172 15.2461 13.1719C14.4727 15.3438 13.0977 16.8516 11.1211 17.6953C10.1133 18.125 9.10156 18.3398 8.08594 18.3398H7.53516C6.52734 18.3398 5.58203 18.1367 4.69922 17.7305C3.82422 17.3242 3.06641 16.793 2.42578 16.1367C1.78516 15.4727 1.26562 14.6016 0.867188 13.5234C0.476562 12.4453 0.28125 11.375 0.28125 10.3125V9.76172C0.28125 8.67578 0.46875 7.60938 0.84375 6.5625C1.21875 5.50781 1.74609 4.60547 2.42578 3.85547C3.10547 3.10547 3.92969 2.51953 4.89844 2.09766C5.86719 1.67578 6.87109 1.46484 7.91016 1.46484H8.17969C10.4062 1.46484 12.1953 2.16406 13.5469 3.5625C14.2188 4.25781 14.7617 5.14062 15.1758 6.21094C15.5977 7.28125 15.8086 8.35938 15.8086 9.44531ZM24.0117 17.543C24.0117 17.8477 23.3047 18 21.8906 18H20.6484L20.1562 17.9766L19.418 17.9648C18.5898 17.9648 18.1758 17.8164 18.1758 17.5195C18.1758 17.3086 18.3594 17.0859 18.7266 16.8516C19.1016 16.6094 19.3516 16.3008 19.4766 15.9258C19.6094 15.543 19.6758 14.4219 19.6758 12.5625C19.6758 10.7031 19.6133 9.57422 19.4883 9.17578C19.3711 8.77734 19.1836 8.49219 18.9258 8.32031C18.4648 8.01562 18.2344 7.79297 18.2344 7.65234C18.2344 7.51172 18.3164 7.38672 18.4805 7.27734C18.9648 6.94922 19.7852 6.78516 20.9414 6.78516H21.1641C21.6094 6.78516 21.9258 7.01172 22.1133 7.46484C22.3008 7.91016 22.4531 8.13281 22.5703 8.13281C22.6875 8.13281 22.8867 8.02344 23.168 7.80469C23.457 7.58594 23.8008 7.36719 24.1992 7.14844C24.6055 6.92969 25.0547 6.82031 25.5469 6.82031C26.0391 6.82031 26.4141 6.94922 26.6719 7.20703C26.9375 7.45703 27.0703 7.78125 27.0703 8.17969C27.0625 8.58594 26.957 8.89062 26.7539 9.09375C26.5508 9.29688 26.332 9.39844 26.0977 9.39844C25.8633 9.39844 25.5547 9.30469 25.1719 9.11719C24.7891 8.92188 24.4688 8.82422 24.2109 8.82422C23.9531 8.82422 23.6719 8.93359 23.3672 9.15234C23.0625 9.36328 22.8008 9.74609 22.582 10.3008C22.3711 10.8477 22.2656 11.7891 22.2656 13.125C22.2656 14.4531 22.3594 15.3125 22.5469 15.7031C22.7344 16.0859 23.0234 16.4375 23.4141 16.7578C23.8125 17.0781 24.0117 17.3398 24.0117 17.543ZM36.293 9.97266C36.293 9.33984 36.0898 8.83594 35.6836 8.46094C35.2773 8.07812 34.7383 7.88672 34.0664 7.88672H33.8438C33.4922 7.88672 33.1172 7.99219 32.7188 8.20312C32.3203 8.41406 31.9922 8.71875 31.7344 9.11719C31.2188 9.91406 30.9609 10.9023 30.9609 12.082V12.7734C30.9609 13.9453 31.2227 14.9141 31.7461 15.6797C32.2773 16.4453 32.9219 16.8281 33.6797 16.8281H34.0195C34.6836 16.8281 35.2266 16.6016 35.6484 16.1484C36.0703 15.6953 36.2812 15.1172 36.2812 14.4141L36.3047 14.168V13.9219L36.3281 13.3125C36.3281 12.9375 36.3281 12.5625 36.3281 12.1875L36.3398 11.8125V11.4492L36.3281 11.3203V10.6992L36.3164 10.582V10.3359C36.3008 10.1797 36.293 10.0586 36.293 9.97266ZM36.3516 6.65625C36.4219 6.48438 36.457 5.96875 36.457 5.10938C36.457 4.25 36.3906 3.62109 36.2578 3.22266C36.125 2.81641 35.8906 2.48438 35.5547 2.22656C35.2266 1.96094 35.0625 1.76172 35.0625 1.62891C35.0625 1.49609 35.1523 1.37891 35.332 1.27734C35.8164 0.996094 36.6055 0.855469 37.6992 0.855469H37.9805C38.5273 0.855469 38.8398 1.14844 38.918 1.73438C38.9414 1.91406 38.9531 4.14844 38.9531 8.4375C38.9531 12.7188 38.9844 15.0703 39.0469 15.4922C39.1094 15.9062 39.2578 16.2305 39.4922 16.4648C39.5391 16.5117 39.6875 16.6328 39.9375 16.8281C40.1953 17.0156 40.3242 17.1836 40.3242 17.332C40.3242 17.4727 40.2148 17.6016 39.9961 17.7188C39.5508 17.9609 38.8242 18.082 37.8164 18.082C37.4648 18.082 37.1836 17.9766 36.9727 17.7656C36.5586 17.3516 36.332 17.1445 36.293 17.1445C36.2617 17.1445 36.0859 17.2344 35.7656 17.4141C35.4453 17.5938 35.0586 17.7773 34.6055 17.9648C34.1602 18.1445 33.6055 18.2344 32.9414 18.2344C32.2773 18.2344 31.6641 18.0898 31.1016 17.8008C30.0625 17.2695 29.332 16.3906 28.9102 15.1641C28.6602 14.4297 28.5352 13.625 28.5352 12.75C28.5352 10.9844 29.0391 9.54688 30.0469 8.4375C31.0625 7.32812 32.4609 6.77344 34.2422 6.77344L35.7773 6.91406C36.0898 6.91406 36.2812 6.82812 36.3516 6.65625ZM49.8516 10.3828V10.0195C49.8516 9.44141 49.6445 8.92188 49.2305 8.46094C48.8164 7.99219 48.3086 7.75781 47.707 7.75781H47.4844C47.375 7.77344 47.3008 7.78125 47.2617 7.78125C46.7148 7.78125 46.1953 8.09375 45.7031 8.71875C45.2188 9.34375 44.9766 10.0117 44.9766 10.7227V10.875C44.9766 11.125 45.125 11.25 45.4219 11.25C45.5391 11.2734 45.6016 11.2852 45.6094 11.2852L45.8789 11.2969H45.9492L46.0312 11.2852L48.293 11.1562L48.7148 11.1094C49.4727 11.1094 49.8516 10.8672 49.8516 10.3828ZM44.9766 13.4883C44.9766 14.3789 45.3125 15.125 45.9844 15.7266C46.6562 16.3281 47.5078 16.6289 48.5391 16.6289C48.9531 16.6289 49.3281 16.5703 49.6641 16.4531C50.0078 16.3281 50.3789 16.1797 50.7773 16.0078C51.1836 15.8359 51.4375 15.75 51.5391 15.75C51.8516 15.75 52.0078 15.918 52.0078 16.2539C52.0078 16.707 51.4297 17.1914 50.2734 17.707C49.5234 18.043 48.7188 18.2109 47.8594 18.2109H47.6016C46.1328 18.2109 44.9141 17.7656 43.9453 16.875C43.4219 16.3906 43.0156 15.7734 42.7266 15.0234C42.4375 14.2656 42.293 13.4531 42.293 12.5859L42.3047 12.3164V12.0469C42.3047 11.2969 42.4766 10.5586 42.8203 9.83203C43.1719 9.10547 43.5898 8.50781 44.0742 8.03906C45.0977 7.05469 46.3125 6.55859 47.7188 6.55078C49.8438 6.55078 51.2578 7.37891 51.9609 9.03516C52.1797 9.55859 52.2891 10.0391 52.2891 10.4766V10.7109C52.2891 11.25 52.0664 11.6133 51.6211 11.8008C51.1758 11.9805 50.125 12.1289 48.4688 12.2461C46.8125 12.3633 45.9141 12.4414 45.7734 12.4805C45.2422 12.6133 44.9766 12.9492 44.9766 13.4883ZM60.293 17.543C60.293 17.8477 59.5859 18 58.1719 18H56.9297L56.4375 17.9766L55.6992 17.9648C54.8711 17.9648 54.457 17.8164 54.457 17.5195C54.457 17.3086 54.6406 17.0859 55.0078 16.8516C55.3828 16.6094 55.6328 16.3008 55.7578 15.9258C55.8906 15.543 55.957 14.4219 55.957 12.5625C55.957 10.7031 55.8945 9.57422 55.7695 9.17578C55.6523 8.77734 55.4648 8.49219 55.207 8.32031C54.7461 8.01562 54.5156 7.79297 54.5156 7.65234C54.5156 7.51172 54.5977 7.38672 54.7617 7.27734C55.2461 6.94922 56.0664 6.78516 57.2227 6.78516H57.4453C57.8906 6.78516 58.207 7.01172 58.3945 7.46484C58.582 7.91016 58.7344 8.13281 58.8516 8.13281C58.9688 8.13281 59.168 8.02344 59.4492 7.80469C59.7383 7.58594 60.082 7.36719 60.4805 7.14844C60.8867 6.92969 61.3359 6.82031 61.8281 6.82031C62.3203 6.82031 62.6953 6.94922 62.9531 7.20703C63.2188 7.45703 63.3516 7.78125 63.3516 8.17969C63.3438 8.58594 63.2383 8.89062 63.0352 9.09375C62.832 9.29688 62.6133 9.39844 62.3789 9.39844C62.1445 9.39844 61.8359 9.30469 61.4531 9.11719C61.0703 8.92188 60.75 8.82422 60.4922 8.82422C60.2344 8.82422 59.9531 8.93359 59.6484 9.15234C59.3438 9.36328 59.082 9.74609 58.8633 10.3008C58.6523 10.8477 58.5469 11.7891 58.5469 13.125C58.5469 14.4531 58.6406 15.3125 58.8281 15.7031C59.0156 16.0859 59.3047 16.4375 59.6953 16.7578C60.0938 17.0781 60.293 17.3398 60.293 17.543Z" fill="black"/>
</svg>
